<svg xmlns="http://www.w3.org/2000/svg" viewBox="0 0 1276 1276">
<path d="M 659.00 8.00 L 644.00 9.00 L 612.50 20.50 L 604.50 65.50 L 599.50 74.50 L 601.50 113.50 L 597.50 155.50 L 599.50 167.50 L 595.50 181.50 L 597.50 212.50 L 594.50 236.50 L 595.50 299.50 L 591.50 329.50 L 592.50 388.50 L 588.50 409.50 L 589.50 432.50 L 584.00 444.00 L 571.00 452.00 L 531.00 454.00 L 523.00 451.00 L 513.00 452.00 L 509.00 449.00 L 414.00 446.00 L 390.00 442.00 L 303.00 442.00 L 265.00 439.00 L 259.00 442.00 L 237.00 443.00 L 219.00 439.00 L 186.00 451.00 L 178.50 460.50 L 182.50 473.50 L 175.50 477.50 L 171.50 487.50 L 168.50 511.50 L 181.50 539.50 L 255.00 600.00 L 310.00 652.00 L 317.00 655.00 L 327.50 669.50 L 360.00 701.00 L 365.00 702.00 L 423.00 761.00 L 431.00 767.00 L 439.00 768.00 L 445.50 777.50 L 457.50 786.50 L 460.50 793.50 L 479.00 808.00 L 560.50 891.50 L 561.50 908.50 L 555.00 921.00 L 496.00 972.00 L 486.00 973.00 L 478.00 970.00 L 461.00 958.00 L 401.00 901.00 L 385.00 890.00 L 375.50 876.50 L 327.00 834.00 L 285.00 788.00 L 267.00 775.00 L 241.00 747.00 L 230.00 743.00 L 198.00 714.00 L 175.00 686.00 L 149.00 673.00 L 130.50 674.50 L 126.50 683.50 L 124.50 707.50 L 118.50 711.50 L 117.50 726.50 L 139.50 759.50 L 155.50 778.50 L 184.50 804.50 L 193.00 818.00 L 223.50 841.50 L 250.50 871.50 L 256.00 884.00 L 263.00 884.00 L 272.00 889.00 L 283.00 905.00 L 302.00 919.00 L 307.00 928.00 L 314.00 929.00 L 317.00 935.00 L 340.00 952.00 L 355.50 967.50 L 359.00 975.00 L 364.00 975.00 L 377.00 986.00 L 414.50 1027.50 L 408.50 1050.50 L 380.00 1070.00 L 368.00 1087.00 L 357.00 1091.00 L 352.50 1095.50 L 350.00 1105.00 L 335.00 1112.00 L 325.00 1125.00 L 321.00 1125.00 L 305.00 1139.00 L 301.00 1139.00 L 287.00 1156.00 L 270.50 1168.50 L 246.50 1201.50 L 237.50 1207.50 L 234.50 1216.50 L 237.50 1230.50 L 243.50 1239.50 L 242.50 1251.50 L 253.00 1262.00 L 267.00 1268.00 L 281.00 1263.00 L 291.00 1252.00 L 306.00 1246.00 L 317.00 1232.00 L 330.00 1226.00 L 363.00 1190.00 L 451.50 1106.50 L 457.00 1095.00 L 465.00 1094.00 L 476.00 1086.00 L 488.00 1090.00 L 498.00 1107.00 L 504.00 1109.00 L 526.00 1128.00 L 536.00 1131.00 L 595.00 1183.00 L 598.50 1192.50 L 596.50 1201.50 L 600.00 1205.00 L 619.00 1218.00 L 644.00 1221.00 L 664.00 1237.00 L 677.00 1237.00 L 700.50 1218.50 L 702.50 1209.50 L 694.50 1197.50 L 695.50 1191.50 L 713.50 1176.50 L 772.00 1111.00 L 786.00 1099.00 L 792.00 1098.00 L 799.00 1108.00 L 807.00 1110.00 L 819.00 1119.00 L 854.00 1153.00 L 863.00 1156.00 L 892.00 1183.00 L 900.00 1186.00 L 935.00 1214.00 L 960.00 1228.00 L 999.00 1261.00 L 1021.00 1263.00 L 1040.00 1259.00 L 1053.00 1263.00 L 1061.50 1256.50 L 1059.50 1243.50 L 1067.50 1234.50 L 1064.50 1227.50 L 1069.50 1215.50 L 1069.50 1205.50 L 1055.00 1191.00 L 1015.00 1163.00 L 996.00 1140.00 L 987.00 1136.00 L 977.00 1123.00 L 946.00 1101.00 L 933.00 1087.00 L 925.00 1087.00 L 908.00 1068.00 L 900.00 1065.00 L 891.00 1055.00 L 874.00 1048.00 L 861.50 1034.50 L 857.50 1020.50 L 863.50 1009.50 L 935.00 937.00 L 995.50 885.50 L 995.50 881.50 L 1015.00 859.00 L 1107.50 780.50 L 1110.50 770.50 L 1118.50 765.50 L 1119.50 759.50 L 1133.50 746.50 L 1127.50 738.50 L 1130.50 709.50 L 1112.00 695.00 L 1097.00 693.00 L 1081.00 705.00 L 1056.00 717.00 L 1014.00 759.00 L 995.00 772.00 L 951.00 816.00 L 916.00 845.00 L 900.50 863.50 L 795.00 966.00 L 779.00 960.00 L 721.00 910.00 L 711.50 898.50 L 710.50 888.50 L 748.00 856.00 L 768.00 847.00 L 798.00 820.00 L 805.00 817.00 L 827.00 789.00 L 834.00 783.00 L 844.00 782.00 L 860.00 761.00 L 897.00 733.00 L 926.00 706.00 L 968.00 676.00 L 1055.00 605.00 L 1065.00 600.00 L 1094.00 574.00 L 1128.00 554.00 L 1133.50 548.50 L 1134.50 540.50 L 1126.50 531.50 L 1126.50 523.50 L 1155.50 498.50 L 1158.50 490.50 L 1158.50 471.50 L 1155.50 464.50 L 1146.00 457.00 L 1116.00 452.00 L 1098.00 459.00 L 1075.00 457.00 L 979.00 460.00 L 951.00 457.00 L 918.00 460.00 L 850.00 460.00 L 703.00 456.00 L 690.00 454.00 L 682.00 449.00 L 678.50 438.50 L 681.50 342.50 L 679.50 260.50 L 683.50 212.50 L 681.50 182.50 L 687.50 141.50 L 686.50 102.50 L 690.50 71.50 L 686.50 43.50 L 679.50 33.50 L 681.50 18.50 L 678.00 14.00 L 673.00 15.00 L 659.00 8.00 Z" fill="#7cf2ff" stroke="#041222" stroke-width="8" stroke-linejoin="round" stroke-linecap="round"/>
<path d="M 982.50 518.50 L 996.00 519.00 L 1001.50 526.50 L 998.50 538.50 L 993.00 546.00 L 985.00 551.00 L 978.00 551.00 L 951.00 578.00 L 929.00 588.00 L 901.00 612.00 L 893.00 614.00 L 884.00 628.00 L 837.00 661.00 L 815.00 682.00 L 809.00 683.00 L 775.00 712.00 L 752.00 726.00 L 706.00 766.00 L 697.00 772.00 L 687.50 770.50 L 683.50 753.50 L 683.50 713.50 L 679.50 692.50 L 682.50 681.50 L 679.50 675.50 L 682.50 643.50 L 679.50 547.50 L 685.00 529.00 L 710.00 526.00 L 802.00 529.00 L 927.00 519.00 L 944.00 521.00 L 982.50 518.50 Z" fill="#7cf2ff" stroke="#041222" stroke-width="8" stroke-linejoin="round" stroke-linecap="round"/>
<path d="M 432.50 516.50 L 580.00 521.00 L 589.50 526.50 L 593.50 608.50 L 591.50 640.50 L 595.50 683.50 L 593.50 722.50 L 596.50 725.50 L 594.50 773.50 L 590.00 783.00 L 571.00 775.00 L 543.00 752.00 L 530.00 737.00 L 523.00 735.00 L 497.00 710.00 L 488.00 706.00 L 423.00 638.00 L 333.50 555.50 L 318.50 539.50 L 312.50 527.50 L 312.50 521.50 L 316.00 518.00 L 432.50 516.50 Z" fill="#7cf2ff" stroke="#041222" stroke-width="8" stroke-linejoin="round" stroke-linecap="round"/>
<path d="M 635.50 956.50 L 711.50 1021.50 L 715.50 1041.50 L 714.50 1050.50 L 696.00 1070.00 L 649.00 1105.00 L 640.00 1104.00 L 628.00 1097.00 L 613.00 1079.00 L 578.00 1057.00 L 546.50 1027.50 L 547.50 1016.50 L 580.00 990.00 L 591.00 977.00 L 622.00 958.00 L 635.50 956.50 Z" fill="#7cf2ff" stroke="#041222" stroke-width="8" stroke-linejoin="round" stroke-linecap="round"/>
</svg>